PathFileType	4	(X/Y/Z)	C:/Users/opensim2020/Desktop/walking_exp_matlab/subject03_walking04_straight_04.trc	
DataRate	CameraRate	NumFrames	NumMarkers	Units	OrigDataRate	OrigDataStartFrame	OrigNumFrames	
100.00	100.00	8	51	mm	100.00	3282	293	
Frame#	Time	LFHD			RFHD			LBHD			RBHD			C7			T10			CLAV			STRN			RBAK			LSHO			LUPA			LELB			LFRM			LWRA			LWRB			LFIN			RSHO			RUPA			RELB			RFRM			RWRA			RWRB			RFIN			LASI			RASI			LPSI			RPSI			LTHI			LKNE			LTIB			LANK			LHEE			LTOE			RTHI			RKNE			RTIB			RANK			RHEE			RTOE			*39			*40			*41			*42			*43			*44			*45			*46			*47			*48			*49			*50			
		X1	Y1	Z1	X2	Y2	Z2	X3	Y3	Z3	X4	Y4	Z4	X5	Y5	Z5	X6	Y6	Z6	X7	Y7	Z7	X8	Y8	Z8	X9	Y9	Z9	X10	Y10	Z10	X11	Y11	Z11	X12	Y12	Z12	X13	Y13	Z13	X14	Y14	Z14	X15	Y15	Z15	X16	Y16	Z16	X17	Y17	Z17	X18	Y18	Z18	X19	Y19	Z19	X20	Y20	Z20	X21	Y21	Z21	X22	Y22	Z22	X23	Y23	Z23	X24	Y24	Z24	X25	Y25	Z25	X26	Y26	Z26	X27	Y27	Z27	X28	Y28	Z28	X29	Y29	Z29	X30	Y30	Z30	X31	Y31	Z31	X32	Y32	Z32	X33	Y33	Z33	X34	Y34	Z34	X35	Y35	Z35	X36	Y36	Z36	X37	Y37	Z37	X38	Y38	Z38	X39	Y39	Z39	X40	Y40	Z40	X41	Y41	Z41	X42	Y42	Z42	X43	Y43	Z43	X44	Y44	Z44	X45	Y45	Z45	X46	Y46	Z46	X47	Y47	Z47	X48	Y48	Z48	X49	Y49	Z49	X50	Y50	Z50	X51	Y51	Z51	

257	2.560	1674.61365	-889.14014	1595.76965	1549.22632	-843.51898	1590.78540	1716.75330	-759.86713	1582.10132	1592.95618	-720.62402	1576.32092	1673.75513	-687.07977	1412.23743	1674.65491	-642.80054	1095.74353	1660.45593	-802.17554	1328.51294	1669.12573	-841.84839	1163.44165	1591.54663	-614.84265	1231.75732	1817.17383	-774.96948	1374.94128	1895.80005	-812.47784	1190.95044	1906.77258	-860.88489	1078.56238	1892.76257	-944.04962	980.35657	1848.19775	-1012.39368	889.61591	1900.80945	-998.29767	880.26672	1883.30151	-1055.73730	822.64514	1507.20178	-735.20984	1348.33167	1444.47644	-706.58466	1124.50024	1432.98486	-710.55292	1011.66913	1434.61938	-715.57538	874.34149	1468.72742	-743.93372	778.25671	1430.61353	-705.11176	774.29950	1439.90991	-723.98108	702.27905	1793.48291	-808.50165	932.50446	1553.01135	-813.13092	927.94861	1737.80957	-647.34998	957.11609	1588.83154	-652.08344	954.31183	1820.35681	-710.02557	637.22021	1779.65820	-675.24152	463.26486	1775.54822	-581.71057	288.15051	1729.68274	-517.98151	87.67429	1690.37781	-475.14450	58.13905	1718.50073	-665.57263	35.44260	1509.76013	-812.49799	632.32788	1554.23853	-889.27002	470.70950	1555.32410	-908.73254	287.16263	1602.08948	-972.01355	79.19632	1662.24524	-948.03180	41.23097	1599.29504	-1116.94751	75.15749	1644.51245	-807.94147	1671.07190																																	 
258	2.570	1673.51660	-898.61053	1594.69104	1548.20386	-853.02100	1589.41980	1715.91577	-769.40320	1581.29285	1592.17261	-729.93402	1575.21875	1673.13049	-696.55225	1411.25903	1673.72314	-652.14575	1094.72839	1660.03613	-811.64307	1327.44861	1668.92651	-851.25140	1162.36084	1590.93384	-624.30817	1230.70935	1816.65723	-784.09607	1373.98010	1895.40759	-821.90778	1190.25171	1906.33655	-870.69238	1078.14771	1891.89771	-954.96790	981.12958	1846.81360	-1024.55103	891.79962	1899.29443	-1010.64539	881.82013	1881.66589	-1069.29065	825.66638	1506.61218	-744.83514	1347.22180	1444.32373	-714.91797	1123.43066	1433.27600	-717.49701	1010.16498	1434.41785	-721.27979	873.05951	1468.29272	-748.37994	776.58093	1430.33423	-709.69415	773.15698	1439.56299	-727.53699	700.88947	1793.51733	-817.28674	931.76245	1553.02502	-823.05920	926.69354	1736.06885	-657.54669	955.55267	1587.74146	-661.96747	953.06470	1820.59900	-717.34448	636.92841	1780.29944	-681.53485	462.98532	1776.15002	-585.58386	288.98587	1730.24744	-518.93512	89.25539	1690.79272	-475.39984	60.56321	1718.58362	-665.71387	35.39771	1510.48401	-820.60089	630.41083	1555.04163	-896.78577	468.66324	1556.20215	-919.49182	286.38922	1602.10303	-987.03735	79.93858	1662.83740	-965.20221	41.58112	1598.92126	-1133.60132	77.52869	1643.41919	-817.43976	1670.00830																																	 
259	2.580	1672.29761	-908.03503	1593.70715	1547.09570	-862.23291	1588.25269	1714.93335	-778.83545	1580.60327	1591.23169	-739.16125	1574.36792	1672.38220	-706.02362	1410.24402	1672.69873	-661.67841	1093.73303	1659.44641	-821.17792	1326.50305	1668.65991	-860.83234	1161.42798	1590.28064	-633.94305	1229.71680	1816.12280	-793.36804	1373.11218	1894.79102	-831.07257	1189.54968	1905.79077	-880.23126	1077.57397	1890.95874	-965.56903	981.75201	1845.37012	-1036.42761	893.81842	1897.70947	-1022.55194	883.17969	1879.95471	-1082.22412	828.42627	1506.05920	-754.65448	1346.14026	1444.08740	-723.67371	1122.28345	1433.28406	-725.24005	1009.00800	1434.25708	-727.44238	871.93445	1467.81897	-753.73395	774.95514	1430.06775	-714.50098	772.09674	1439.26697	-731.38629	699.56500	1793.53198	-826.30157	930.98035	1553.00745	-833.07050	925.62384	1735.29797	-666.22546	954.94946	1586.65808	-671.94159	951.91516	1820.83655	-725.01068	636.77448	1781.00281	-688.26941	462.70398	1776.65955	-589.91229	289.89496	1731.02930	-519.96472	91.37132	1691.43396	-476.13971	63.26973	1718.62659	-665.85632	35.28029	1511.36133	-829.23834	628.54431	1555.69739	-905.03320	466.97061	1556.95886	-929.59711	285.54453	1602.61597	-1000.73529	79.34904	1663.18213	-978.99164	41.30540	1599.44861	-1147.21655	78.79938	1642.18665	-826.86261	1668.98779																																	 
260	2.590	1671.12610	-917.46051	1592.89087	1545.99609	-871.49310	1587.14355	1713.99390	-788.35138	1580.07959	1590.28589	-748.55554	1573.61243	1671.64185	-715.27399	1409.29565	1672.04590	-670.98749	1093.10754	1658.91760	-830.91565	1325.71692	1668.26868	-870.59735	1160.60217	1589.68286	-643.55322	1228.80737	1815.53723	-802.72070	1372.35168	1894.24182	-839.93616	1188.80115	1905.18738	-889.58014	1077.02136	1890.08923	-975.78522	982.24597	1843.95337	-1047.74207	895.47333	1896.18396	-1033.91541	884.34662	1878.31433	-1094.62439	830.93335	1505.43457	-764.12231	1345.15039	1443.87769	-732.63190	1121.40198	1433.12183	-733.43994	1008.07062	1434.01172	-734.02887	870.88361	1467.42346	-759.06763	773.61072	1429.69641	-719.85022	771.25183	1439.01050	-735.64856	698.39484	1793.40588	-835.55463	930.27454	1552.98560	-843.17969	924.71106	1734.50452	-675.23889	954.30414	1585.60059	-682.01434	951.01086	1821.04077	-733.04602	636.55774	1781.78003	-695.36334	462.51706	1777.34412	-594.35791	290.90677	1731.42639	-521.33838	93.12177	1692.09924	-476.77505	66.14735	1718.71008	-665.99878	35.17193	1512.23401	-838.43506	627.18634	1556.15454	-914.39716	465.73901	1557.63611	-939.17395	284.51224	1603.22168	-1011.02478	78.34266	1663.72278	-989.18500	40.28246	1600.77148	-1157.76038	78.42229	1640.91064	-836.43622	1668.22913																																	 
261	2.600	1669.96265	-926.85803	1592.19019	1544.84888	-880.72034	1586.29944	1712.92993	-797.66541	1579.61487	1589.34900	-757.59460	1573.00061	1670.67200	-725.08435	1408.23914	1671.32288	-680.73969	1092.29602	1658.23914	-840.64966	1324.98718	1667.89954	-880.48779	1159.89111	1588.92480	-653.41986	1227.77673	1814.84424	-812.06531	1371.68872	1893.81055	-848.81732	1188.06396	1904.56531	-898.59955	1076.33813	1889.19189	-985.58905	982.53003	1842.63660	-1058.60730	897.14044	1894.70642	-1044.76099	885.31592	1876.72119	-1106.33691	833.10565	1504.70044	-774.02216	1344.36536	1443.56567	-741.79236	1120.56995	1432.92676	-741.93127	1007.15491	1433.68848	-740.98956	869.99524	1467.15381	-764.98535	772.47308	1429.26868	-725.66486	770.51349	1438.77124	-740.19287	697.29126	1793.14355	-845.00977	929.63885	1552.79102	-853.47412	923.82764	1732.86438	-686.09894	953.18219	1584.70679	-692.16779	950.16010	1821.28406	-741.39117	636.36389	1782.61731	-702.79639	462.26166	1778.18652	-598.89325	291.96048	1732.20483	-522.70178	95.26988	1693.04968	-477.80115	69.21458	1718.84680	-666.11603	35.08901	1512.71313	-848.36780	626.37823	1556.36340	-924.73193	465.18295	1558.19995	-948.20038	283.30588	1604.30701	-1018.45575	76.76216	1664.80322	-996.00964	38.98311	1603.22339	-1165.49182	75.96811	1639.62158	-845.86267	1667.50525																																	 
262	2.610	1668.68860	-936.19678	1591.69739	1543.63147	-889.93878	1585.49988	1711.85217	-807.05383	1579.30481	1588.29187	-766.96716	1572.40820	1669.76660	-734.73907	1407.44092	1670.26990	-691.27106	1091.15686	1657.53320	-850.49042	1324.38599	1667.38599	-890.50470	1159.28406	1588.11450	-663.40472	1226.79724	1814.06873	-821.52020	1371.10901	1893.12585	-857.89423	1187.27417	1903.98474	-907.46143	1075.65894	1888.30237	-995.03723	982.71948	1841.30505	-1068.96753	898.41815	1893.25037	-1055.14038	886.02484	1875.07483	-1117.44800	834.91089	1503.88062	-783.88464	1343.49719	1443.12085	-751.34210	1119.71191	1432.77563	-750.86224	1006.31396	1433.40137	-748.41650	869.20508	1466.77307	-770.81848	771.22369	1428.77087	-731.85931	769.84100	1438.52844	-745.06451	696.34406	1792.84290	-854.64905	928.90948	1552.57153	-863.65082	922.80786	1732.66199	-694.92914	952.95953	1583.89941	-702.47748	949.44336	1821.72949	-750.06396	636.18451	1783.41895	-710.69208	461.95953	1778.97583	-603.95020	292.99243	1733.03711	-524.24890	97.75497	1693.91553	-478.79688	72.56068	1718.97937	-666.19348	34.97619	1512.84326	-859.17426	626.00763	1556.53052	-935.64459	464.72638	1558.70044	-956.67090	281.97113	1605.54016	-1023.09894	74.70425	1666.02820	-999.90082	37.27111	1605.89343	-1170.39502	71.61240	1638.17639	-855.25702	1667.00671																																	 
263	2.620	1667.38196	-945.49426	1591.38379	1542.41077	-899.12665	1584.90649	1710.69714	-816.41632	1579.01929	1587.08679	-776.28931	1571.66711	1668.86951	-744.40045	1406.85718	1669.53857	-701.46844	1090.37683	1656.71533	-860.40424	1323.83569	1666.80200	-900.71814	1158.84998	1587.25940	-673.63129	1225.86914	1813.30139	-831.19916	1370.65808	1892.37781	-866.95935	1186.55127	1903.38416	-916.11285	1074.96436	1887.37634	-1004.24866	982.73572	1839.98987	-1078.85986	899.48578	1891.78430	-1065.06580	886.54755	1873.45703	-1127.97961	836.34088	1502.98328	-793.99133	1342.85132	1442.72974	-761.19055	1119.00391	1432.42908	-760.05646	1005.58234	1433.03198	-756.04999	868.51691	1466.39844	-777.39215	770.20514	1428.23438	-738.57281	769.35193	1438.20996	-750.51550	695.46899	1792.13538	-866.02631	929.03052	1552.02515	-874.45966	922.05731	1731.66089	-705.61554	952.11212	1583.24817	-712.89935	948.88690	1821.92676	-759.15820	635.87738	1784.27246	-719.08337	461.53531	1779.80396	-609.38812	294.07407	1733.93298	-525.95319	100.40855	1694.86035	-479.96878	76.23862	1719.08069	-666.41168	34.92026	1512.80054	-871.11786	626.17395	1556.89063	-946.47174	464.31113	1559.26440	-964.43243	280.42990	1607.05005	-1026.37781	72.14519	1667.01428	-1001.41870	35.12436	1609.08191	-1173.31909	66.15678	1636.77576	-864.52618	1666.56079																																	 
264	2.630	1666.08459	-954.69818	1591.24438	1541.18213	-908.22552	1584.45081	1709.54321	-825.60944	1578.68213	1586.10120	-785.43140	1571.12317	1667.86243	-754.13947	1406.20715	1668.92993	-711.76141	1089.71484	1655.81787	-870.35736	1323.41296	1666.13782	-911.06635	1158.51013	1586.39941	-683.82227	1225.03833	1812.39307	-840.80444	1370.18396	1891.71558	-875.93231	1185.97498	1902.79785	-924.46655	1074.19629	1886.56335	-1012.98560	982.56226	1838.73059	-1088.29248	900.24628	1890.36938	-1074.45557	886.77112	1871.88269	-1137.89709	837.40247	1502.03601	-804.16528	1342.29407	1442.12292	-770.90869	1118.31616	1432.03015	-769.39172	1004.98065	1432.49341	-763.90149	867.72699	1466.00586	-784.49072	769.22870	1427.63318	-745.70172	768.94147	1437.97168	-756.21002	694.69171	1791.63000	-876.53662	928.48328	1551.31311	-885.82788	921.76355	1730.51416	-716.62952	951.19800	1582.58398	-723.52283	948.38525	1821.95178	-768.59991	635.42072	1785.17456	-727.98199	461.04160	1780.54736	-615.23682	295.19748	1734.86780	-527.91345	103.31435	1695.79639	-481.28302	80.25829	1719.24780	-666.59033	34.88210	1512.74646	-883.89148	626.50446	1557.29736	-956.91998	463.78058	1559.89709	-971.51001	278.80615	1608.99683	-1029.46729	69.93567	1669.15271	-1002.42505	34.17151	1612.41956	-1175.46692	58.49722	1635.40381	-873.60498	1666.19861																																	 
